<?xml version="1.0" encoding="utf-8"?>
<!-- Generator: Adobe Illustrator 26.0.3, SVG Export Plug-In . SVG Version: 6.00 Build 0)  -->
<svg version="1.1" id="logo" xmlns="http://www.w3.org/2000/svg" xmlns:xlink="http://www.w3.org/1999/xlink" x="0px"
     y="0px"
     width="425px" height="289px" viewBox="0 0 425 289" style="enable-background:new 0 0 425 289;" xml:space="preserve">
<style type="text/css">
	.st0{fill-rule:evenodd;clip-rule:evenodd;fill:#FF3A52;}
	.st1{fill-rule:evenodd;clip-rule:evenodd;fill:#FCF6E2;}
	.st2{fill-rule:evenodd;clip-rule:evenodd;fill:#017AFF;}
	.st3{fill-rule:evenodd;clip-rule:evenodd;fill:#FEB23E;}
	.st4{fill-rule:evenodd;clip-rule:evenodd;fill:#15C8C9;}
	.st5{fill-rule:evenodd;clip-rule:evenodd;fill:#FC5012;}
	.st6{fill-rule:evenodd;clip-rule:evenodd;fill:#FFFFFF;}
	.st7{fill-rule:evenodd;clip-rule:evenodd;}
</style>
    <g id="Layer_x0020_1">
	<path class="st0" d="M120,2.5h183.8c27.6,0,50,22.4,50,50v183.8c0,27.6-22.4,50-50,50H120c-27.6,0-50-22.4-50-50V52.5
		C70,24.9,92.4,2.5,120,2.5z"/>
        <path class="st1" d="M354,125.4v111.1c0,14.2-6.1,27.1-15.5,36h-253c-9.4-9-15.5-21.8-15.5-36V125.4H354z"/>
        <path class="st1" d="M354,184.8v51.7c0,27.5-22.5,50-50,50H120c-27.5,0-50-22.5-50-50v-51.7H354z"/>
        <path class="st2" d="M148.4,286.5H120c-13.8,0-26.2-5.7-35.1-14.6h63.5V286.5z"/>
        <polygon class="st3" points="275.6,286.5 212.1,286.5 212.1,271.9 275.6,271.9 	"/>
        <path class="st4" d="M339.2,271.9c-9,9-21.4,14.6-35.1,14.6h-28.4v-14.6H339.2z"/>
        <polygon class="st5" points="211.9,286.5 148.4,286.5 148.4,271.9 211.9,271.9 	"/>
        <path class="st6" d="M116.9,86.1l0.9-7.6c-1.5-1.5-3.7-2.2-5.7-3.5c-16.8-13.8-5.7-37.8,10.3-38.9l-3.5,8.7c-2.4-0.7-2.8-1.5-5.2-2
		c0,0,0.2,0,0.2,0.2l2.4,2.4c1.3,0.9,1.7,1.5,2.8,2.4l1.7-2.4l2.8,2c0,6.1-5.7,40.8-5.2,43c0.2,1.1,5.9,7.9,6.8,9.6
		c1.1-0.7,6.8-7.9,7.2-9.2c0.4-0.9-4.6-41.7-5-42.8c0.9-1.1,1.7-1.7,3.1-2.4l0.9,1.1c0.2,0.2,0.2,0.2,0.2,0.4
		c0.4,0.4,0.2,0.2,0.7,0.7l6.8-5.7c-1.7,0.7-4.6,2.4-6.3,2.4l-3.5-8.3c17.7,1.3,27.7,29.5,5.9,41l-1.7,1.1l0.9,7
		c1.3,0.9,2.8-0.2,4.4-0.9c5.7-2.6,7-5.2,10.7-8.3c3.5,1.5,4.6,2.4,5.2,3.1c-0.2,1.1,0.2,2.2,1.1,2.8l30.3,17.2
		c0.7,0.4,1.3,0.4,2,0.2c0.2,0,0.2,0,0.4,0l0.2-0.4c0.2-0.2,0.7-0.4,0.7-0.7l1.7-3.1l0,0l0.2-0.2l1.7-3.3c0.7-1.1,0.4-2.6-0.9-3.3
		l-30.3-17.5c-1.1-0.7-2.4-0.2-3.1,0.7h-0.2c-0.7-0.2-4.4-2.4-5-2.8c4.6-14.2,0.9-25.8-7.6-33.4C125.2,16.9,92.5,34.8,96,61
		C97.7,72.8,106.5,83.9,116.9,86.1z"/>
        <path class="st7" d="M146.6,168.8c0,4.8-1.7,8.5-5.5,10.9c-2.8,2-6.8,2.8-11.4,2.8c-4.4,0-8.1-1.1-11.1-3.3
		c-3.7-2.8-5.7-6.5-5.7-11.6V149c0-5,2-8.7,6.3-11.1c2.8-1.7,6.5-2.6,10.7-2.6c10.3,0,15.3,3.9,15.3,11.4c0,2.6-0.9,4.8-2.6,6.5
		c-1.7,1.5-3.7,2.4-6.1,2.4c-2.6,0-4.8-0.9-6.3-2.4c-1.3-1.7-2.2-4.1-2.2-6.8c0-2,0.4-3.5,1.5-5c0.9-1.5,2.2-2.6,3.7-3.1h-0.9
		c-2.8,0-5.2,1.3-6.8,4.4c-1.1,2.2-1.7,4.6-1.7,7.2v17.7c0,3.9,1.1,7,3.1,9c1.7,1.5,4.1,2.2,6.8,2.2c-4.1-2-6.1-5.2-6.1-10.3
		c0-3.7,0.9-6.5,2.8-8.3c1.7-1.7,3.9-2.6,6.8-2.6C143.6,157.5,146.6,161.2,146.6,168.8z M140.5,144c0-1.1-0.4-2.2-1.1-3.1
		c-0.7-0.9-1.5-1.3-2.6-1.3c-1.1,0-2,0.4-2.6,1.3c-0.7,0.9-1.1,2-1.1,3.1c0,1.3,0.4,2.2,1.1,3.1c0.7,0.9,1.5,1.3,2.6,1.3
		c1.1,0,2-0.4,2.6-1.3S140.5,145.3,140.5,144z M142.5,171.7c0-1.5-0.4-2.8-1.3-3.7c-0.9-1.1-2-1.5-3.3-1.5c-1.3,0-2.2,0.4-3.1,1.5
		c-0.9,0.9-1.3,2.2-1.3,3.7c0,1.3,0.4,2.6,1.3,3.5c0.9,1.1,1.7,1.5,3.1,1.5c1.3,0,2.4-0.7,3.3-1.5C142,174.1,142.5,173,142.5,171.7z
		 M201.2,181.7h-31V178c1.5,0,2.6-1.1,3.9-3.1c1.3-2.6,2-5.7,2-9.6c0-3.9-0.7-7.2-2.2-9.6c-2-2.8-4.6-4.4-8.3-4.4
		c-4.4,0-7.6,1.5-10.3,4.4c-2.2,2.8-3.3,6.3-3.3,10.9c0,3.1,1.1,6.1,2.8,8.5c-0.4-1.5-0.9-3.3-0.9-5.7c0-3.3,0.9-5.7,2.6-7.6
		c1.5-2,3.7-2.8,6.5-2.8c2.6,0,4.8,0.9,6.5,2.8c1.7,2,2.6,4.8,2.6,8.5c0,3.5-1.1,6.3-3.1,8.7c-2.2,2.2-4.6,3.3-7.6,3.3
		c-4.1,0-7.2-1.7-9.6-5.2c-2-3.3-3.1-7.2-3.1-12c0-12.4,6.8-18.6,20.1-18.6c6.1,0,10.7,1.5,14,4.8c3.1,2.8,4.6,6.8,4.6,11.6
		c0,3.9-0.4,6.8-1.1,8.7c-0.9,2-2.2,4.1-4.4,6.1h7.4v-30.3h11.6V181.7z M167.1,174.1c0-1.3-0.4-2.4-1.3-3.5
		c-0.9-0.9-1.7-1.3-3.1-1.3c-1.1,0-2.2,0.4-3.1,1.3c-0.7,0.9-1.1,2.2-1.1,3.5c0,1.3,0.4,2.4,1.1,3.5c0.9,0.9,2,1.3,3.1,1.3
		c1.3,0,2.2-0.4,3.1-1.3C166.7,176.5,167.1,175.4,167.1,174.1z M261,164.3c0,3.5-0.9,6.8-2.6,9.8c-1.5,2.8-3.3,4.8-5.2,5.9
		c-2.6,1.5-6.1,2.2-10.9,2.2l-0.2-3.7c2,0,3.5-0.4,4.6-1.7c2.4-2.6,3.5-6.8,3.5-12.4c0-9.2-2.8-13.8-8.5-13.8c-0.9,0-1.7,0-2.2,0
		c3.7,3.1,5.5,8.3,5.5,15.3c0,4.8-1.3,8.7-3.5,11.8c-2.4,3.1-5.7,4.6-9.6,4.6c-3.5,0-6.1-1.5-7.4-4.4c-1.5,2.8-3.7,4.4-6.8,4.4
		c-3.9,0-7.2-1.7-9.6-5c-2.2-2.8-3.3-6.5-3.3-11.1c0-13.1,6.3-19.6,18.8-19.6c4.8,0,8.7,0.4,11.6,1.5c2.4-0.9,5.5-1.1,9-1.1
		C255.3,146.8,261,152.5,261,164.3z M228,151.4c-1.3-0.7-3.1-0.9-5-0.9c-5.2,0-9.2,1.5-11.8,4.8c-2.4,3.1-3.5,7-3.5,12
		c0,3.7,0.9,6.5,2.8,8.5c-1.1-1.7-1.5-3.7-1.5-5.9c0-3.1,0.9-5.7,2.6-7.6c1.5-2.2,3.9-3.3,6.8-3.3c2,0,3.7,0.7,5,2
		C224.1,157.5,225.6,154.2,228,151.4z M233.3,165.6c0-5.5-0.9-9.2-2.6-11.6c-2.4,2.4-3.7,7.2-3.7,14.2c0,5.7,0.9,8.5,2.6,8.5
		C232,176.7,233.3,173,233.3,165.6z M221.7,173.9c0-1.3-0.2-2.4-1.1-3.3c-0.9-0.9-1.7-1.3-3.1-1.3c-1.1,0-2.2,0.4-2.8,1.3
		c-0.9,0.9-1.3,2-1.3,3.3c0,1.3,0.4,2.4,1.3,3.5c0.7,0.9,1.7,1.3,2.8,1.3c1.3,0,2.2-0.4,3.1-1.3
		C221.5,176.3,221.7,175.2,221.7,173.9z M313.8,163.4c0,6.1-1.3,10.9-4.1,14.2c-2.6,3.3-6.3,5-10.9,5c-3.3,0-6.1-0.9-8.1-2.6
		c-2-1.7-3.1-4.4-3.1-7.6v-10.9c0-3.1-0.7-5.2-2.4-7.2c-1.7-1.7-4.1-2.6-7-2.6c-3.7,0-6.5,1.3-8.7,3.7c-2.2,2.6-3.3,5.9-3.3,9.6
		c0,4.6,1.1,8.1,2.8,10.7c0.2,0,0.4,0.2,1.1,0.9c-1.3-2-2.2-4.4-2.2-7.2c0-3.3,1.1-5.9,2.8-7.6c1.7-1.7,3.7-2.6,6.3-2.6
		c3.1,0,5.5,1.1,7,3.3c1.3,2,2,4.6,2,7.9c0,3.9-0.9,7-2.8,9.4c-1.7,2.2-3.9,3.3-6.5,3.3c-4.1,0-7.4-1.5-9.8-4.6
		c-2.6-3.1-3.9-7.9-3.9-14.2c0-11.6,6.5-17.2,19.9-17.2c11.1,0,16.6,4.4,16.6,13.3v11.8c0,3.1,1.1,4.6,3.1,4.6
		c2.2,0,4.1-1.5,5.5-4.1c1.1-2.4,1.5-5.2,1.5-8.5c0-8.5-2.6-12.7-7.9-12.7c-0.9,0-2.2,0.2-3.7,1.1v-5c1.3-0.2,2.6-0.4,3.9-0.4
		c3.5,0,6.3,1.5,8.7,4.8C312.7,154.7,313.8,158.6,313.8,163.4z M281.1,173.9c0-1.3-0.4-2.6-1.3-3.5c-0.9-1.1-2-1.5-3.1-1.5
		c-1.3,0-2.2,0.4-3.1,1.5c-0.9,0.9-1.3,2.2-1.3,3.5c0,1.5,0.4,2.6,1.3,3.7c0.9,0.9,2,1.3,3.1,1.3s2.2-0.4,3.1-1.3
		C280.7,176.5,281.1,175.4,281.1,173.9z M154.9,247.9h-31v-3.5c1.5,0,2.8-1.1,3.9-3.3c1.5-2.4,2.2-5.7,2.2-9.4
		c0-4.1-0.9-7.2-2.4-9.8c-1.7-2.8-4.6-4.1-8.1-4.1c-4.4,0-7.9,1.3-10.3,4.4c-2.2,2.6-3.3,6.3-3.3,10.7c0,3.3,0.9,6.1,2.8,8.7
		c-0.7-1.5-0.9-3.5-0.9-5.9c0-3.1,0.7-5.7,2.4-7.6c1.7-1.7,3.9-2.8,6.5-2.8c2.8,0,5,1.1,6.5,2.8c1.7,2.2,2.6,5,2.6,8.5
		c0,3.7-1.1,6.5-3.1,8.7c-2.2,2.4-4.6,3.5-7.4,3.5c-4.1,0-7.4-1.7-9.6-5.5c-2.2-3.1-3.1-7.2-3.1-12c0-12.4,6.5-18.6,20.1-18.6
		c5.9,0,10.7,1.5,14,4.8c2.8,2.8,4.4,6.8,4.4,11.8c0,3.7-0.4,6.5-1.1,8.5c-0.7,2.2-2.2,4.1-4.1,6.1h7.2v-30.1h11.6V247.9z
		 M120.9,240.2c0-1.3-0.4-2.4-1.3-3.3c-0.7-1.1-1.7-1.5-2.8-1.5c-1.3,0-2.4,0.4-3.1,1.3c-0.9,1.1-1.3,2.2-1.3,3.5
		c0,1.5,0.4,2.6,1.3,3.5c0.7,0.9,1.7,1.5,3.1,1.5c1.1,0,2.2-0.7,2.8-1.5C120.4,242.8,120.9,241.7,120.9,240.2z M192.7,218.6h-6.5
		v29.5h-12.2v-29.5h-8.5v29.5h-5.2v-34.3h32.5V218.6z M232.6,201.6c0,2.2-0.9,4.1-2.2,5.7c-1.3,1.5-3.1,2.4-5,2.4
		c-2,0-3.5-0.9-5-2.4c-1.3-1.5-2.2-3.5-2.2-5.7c0-2.4,0.9-4.4,2.2-5.9c1.3-1.5,3.1-2.4,5-2.4c2,0,3.7,0.9,5,2.4
		C231.8,197.2,232.6,199.2,232.6,201.6z M240.9,247.9h-32.1v-9.4c-0.4,2.6-1.3,4.8-2.8,6.8c-1.7,2-3.5,3.1-5.2,3.1
		c-3.5,0-5-2.2-5-6.5v-28.2h4.6v24c0,1.1,0,1.7,0,1.7c0.2,0.9,0.7,1.3,1.3,1.3c2,0,3.5-1.5,5-4.6c1.5-3.1,2.2-6.5,2.2-10.3v-12.2
		h11.4v29.3h9.2v-29h11.6V247.9z M271.3,202.2c0,2-0.7,3.7-2,5.2c-1.1,1.5-2.8,2.4-4.6,2.4c-1.7,0-3.3-0.9-4.6-2.4
		c-1.1-1.5-1.7-3.3-1.7-5.2c0-2.2,0.7-3.9,1.7-5.5c1.3-1.5,2.8-2.2,4.6-2.2c1.7,0,3.5,0.7,4.6,2.2
		C270.6,198.3,271.3,200.1,271.3,202.2z M281.1,247.9h-34.7v-34.1h12.4v29.3h10.7v-29.3h11.6V247.9z M321,259.4h-11.4v-11.6h-23.4
		v-34.1H299v29.5h10.7v-29.5H321V259.4z"/>
        <path class="st6" d="M238.3,59.3h-7.4V48.6c0-1.7-0.7-3.1-1.7-4.1c-1.1-1.1-2.4-1.5-3.9-1.5c-3.7,0-5.5,1.3-5.5,4.4
		c0,1.1,0.4,2,1.1,2.6c0.7,0.9,1.5,1.3,2.6,1.3h5.5v6.3h-2c0-0.7-0.4-1.5-1.1-2.2c-0.9-0.7-1.7-0.9-2.8-0.9h-2v7.4
		c1.3-1.1,3.1-1.5,5-1.5c2.8,0,5,0.9,6.8,2.8c1.7,2,2.6,5,2.6,8.7c0,3.9-1.5,7-4.1,9.6c-2.8,2.4-6.1,3.7-9.8,3.7h-12.7
		c-0.9,0-1.3,0.7-1.3,1.7c0,0.7,0.2,1.1,0.7,1.5c0.7,0.4,1.1,0.7,1.5,0.7v2.4h-3.5c-3.1,0-4.6-1.5-4.6-4.6c0-1.3,0.4-2.6,1.5-3.7
		c1.1-0.9,2.2-1.5,3.7-1.5h13.8c2.6,0,4.6-0.9,6.1-2.6c1.7-2,2.4-4.1,2.4-7c0-2.2-0.4-4.1-1.3-5.7c-0.9-1.5-2.2-2.2-3.5-2.2
		c-0.9,0-1.5,0.2-2.4,0.9c-0.7,0.4-0.9,1.1-0.9,2v6.8c0,1.3,0.7,2.2,2,2.2v2.2h-9.8v-2.4c1.5,0,2.2-0.7,2.2-2V54.5h-6.1v19
		c0,0.7,0.2,1.3,0.7,1.7c0.4,0.4,0.9,0.7,1.5,0.7v2.4h-9.8v-2.4c0.4,0,0.9-0.2,1.5-0.9c0.4-0.4,0.7-0.9,0.7-1.3V55.3
		c0-1.1-0.7-1.7-1.7-1.7c-0.4,0-0.7,0.2-0.9,0.2v-2.6h15.7c-2.2-1.3-3.5-2.8-3.5-4.6c0-2.2,1.1-3.9,3.3-5c2-1.3,4.8-2,8.1-2
		c3.5,0,6.3,0.7,8.5,2.2c2,1.5,3.1,3.5,3.1,5.9v7.6c0,0.7,0.2,1.1,0.7,1.5c0.4,0.4,0.9,0.7,1.3,0.7V59.3z M261.4,40.9
		c0,1.3-0.4,2.4-1.3,3.3c-0.9,1.1-2,1.5-3.3,1.5c-1.3,0-2.4-0.4-3.5-1.3c-0.9-0.9-1.5-2-1.5-3.3c0-1.5,0.7-2.6,1.5-3.7
		c1.1-0.9,2.2-1.3,3.5-1.3c1.3,0,2.4,0.4,3.3,1.3C261,38.5,261.4,39.6,261.4,40.9z M273.4,70.8c0,4.4-1.7,8.1-5,10.7
		c-2.8,2.4-6.3,3.5-10,3.5h-8.5c-1.1,0-2,0.4-2.8,1.1c-0.7,0.7-1.1,1.5-1.1,2.4v3.1h-6.8v-3.3c0-1.7,0.7-3.3,2-4.6
		c1.5-1.3,3.1-2,4.8-2h12.2c2.6,0,4.8-1.1,6.5-3.3c1.7-2.2,2.6-4.6,2.6-7.4c0-2-0.4-3.7-1.5-5c-1.1-1.5-2.2-2.4-3.5-2.4h-1.7v6.5
		c0,2.6-1.1,4.6-3.1,6.1c-1.7,1.5-4.1,2.2-7,2.2c-3.3,0-5.9-0.9-7.9-2.4c-2-1.7-3.1-3.9-3.1-6.8c0-2.2,0.7-3.9,1.7-5.7
		c1.1-1.5,2.4-2.4,4.1-2.4v-5.7c0-1.1-0.7-1.7-2-1.7c0,0-0.2,0-0.4,0v-2.6h26.4v5.9h-2.4c0-0.7-0.2-1.3-0.7-1.7
		c-0.2-0.7-0.9-0.9-1.5-0.9h-4.4v5.9h3.7C270.4,60.3,273.4,63.8,273.4,70.8z M255.1,60.3v-5.9H251v5.9H255.1z M255.1,70.4v-6.8h-4.8
		c-1.3,0-2.4,0.7-3.3,1.7c-0.7,1.3-1.1,2.6-1.1,4.1c0,1.5,0.4,2.8,1.3,3.9c0.9,1.1,2,1.7,3.3,1.7s2.2-0.4,3.3-1.3
		C254.7,72.8,255.1,71.7,255.1,70.4z M300.7,57.5h-2.4c0-0.9-0.2-1.5-0.7-2c-0.4-0.7-0.9-1.1-1.5-1.1h-2V80
		c-3.7,1.7-7.4,3.3-11.4,4.8c-3.1,1.7-4.6,3.5-4.6,5.7h-2v-6.1l12.4-5.9v-24h-5.9v19.2c0,0.4,0.2,0.9,0.7,1.3
		c0.4,0.4,0.9,0.7,1.3,0.7v2.6h-9.6v-2.6c1.3,0,2.2-0.7,2.2-2V55.8c0-1.3-0.7-1.7-1.7-1.7c-0.2,0-0.4,0-0.9,0v-2.8h26V57.5z
		 M328.2,56.4h-2.2c0-0.4,0-0.9-0.4-1.3c-0.2-0.4-0.7-0.7-0.9-0.7h-3.3v19.4c0,0.4,0.2,0.9,0.7,1.3c0.4,0.4,0.9,0.7,1.5,0.7v2.4
		h-9.8v-2.6c0.7,0,1.1-0.2,1.5-0.7c0.7-0.7,0.9-1.1,0.9-1.5v-19h-6.3v19.2c0,0.4,0.2,0.9,0.7,1.3c0.7,0.4,1.1,0.7,1.5,0.7v2.6h-9.8
		v-2.6c0.7,0,1.1-0.2,1.5-0.7c0.4-0.4,0.7-1.1,0.7-1.5V55.1c0-0.4-0.2-0.7-0.4-1.1c-0.4-0.4-0.7-0.7-1.1-0.7h-1.3v-2.2h26.6V56.4z"
        />
</g>
</svg>
